<?xml version="1.0" encoding="UTF-8" standalone="no"?>
<!DOCTYPE svg PUBLIC "-//W3C//DTD SVG 1.1//EN"
 "http://www.w3.org/Graphics/SVG/1.1/DTD/svg11.dtd">
<!-- Generated by graphviz version 9.0.0 (20230911.1827)
 -->
<!-- Pages: 1 -->
<svg width="117pt" height="404pt"
 viewBox="0.00 0.00 117.11 404.00" xmlns="http://www.w3.org/2000/svg" xmlns:xlink="http://www.w3.org/1999/xlink">
<g id="graph0" class="graph" transform="scale(1 1) rotate(0) translate(4 400)">
<polygon fill="white" stroke="none" points="-4,4 -4,-400 113.11,-400 113.11,4 -4,4"/>
<!-- broadcaster -->
<g id="node1" class="node">
<title>broadcaster</title>
<ellipse fill="none" stroke="black" cx="54.56" cy="-378" rx="54.56" ry="18"/>
<text text-anchor="middle" x="54.56" y="-372.57" font-family="Times New Roman,serif" font-size="14.00">broadcaster</text>
</g>
<!-- a -->
<g id="node2" class="node">
<title>a</title>
<ellipse fill="#b4eeb4" stroke="black" cx="54.56" cy="-306" rx="27" ry="18"/>
<text text-anchor="middle" x="54.56" y="-300.57" font-family="Times New Roman,serif" font-size="14.00">a</text>
</g>
<!-- broadcaster&#45;&gt;a -->
<g id="edge1" class="edge">
<title>broadcaster&#45;&gt;a</title>
<path fill="none" stroke="black" d="M54.56,-359.7C54.56,-352.41 54.56,-343.73 54.56,-335.54"/>
<polygon fill="black" stroke="black" points="58.06,-335.62 54.56,-325.62 51.06,-335.62 58.06,-335.62"/>
</g>
<!-- inv -->
<g id="node3" class="node">
<title>inv</title>
<ellipse fill="#eee685" stroke="black" cx="27.56" cy="-234" rx="27" ry="18"/>
<text text-anchor="middle" x="27.56" y="-228.57" font-family="Times New Roman,serif" font-size="14.00">inv</text>
</g>
<!-- a&#45;&gt;inv -->
<g id="edge2" class="edge">
<title>a&#45;&gt;inv</title>
<path fill="none" stroke="black" d="M48.02,-288.05C45.04,-280.32 41.43,-270.96 38.07,-262.27"/>
<polygon fill="black" stroke="black" points="41.44,-261.27 34.58,-253.2 34.91,-263.79 41.44,-261.27"/>
</g>
<!-- con -->
<g id="node4" class="node">
<title>con</title>
<ellipse fill="#eee685" stroke="black" cx="54.56" cy="-90" rx="27" ry="18"/>
<text text-anchor="middle" x="54.56" y="-84.58" font-family="Times New Roman,serif" font-size="14.00">con</text>
</g>
<!-- a&#45;&gt;con -->
<g id="edge3" class="edge">
<title>a&#45;&gt;con</title>
<path fill="none" stroke="black" d="M58.21,-287.91C60.23,-277.57 62.54,-264.09 63.56,-252 67.59,-204.17 67.59,-191.83 63.56,-144 62.88,-135.97 61.64,-127.33 60.28,-119.4"/>
<polygon fill="black" stroke="black" points="63.73,-118.79 58.48,-109.58 56.84,-120.05 63.73,-118.79"/>
</g>
<!-- b -->
<g id="node5" class="node">
<title>b</title>
<ellipse fill="#b4eeb4" stroke="black" cx="27.56" cy="-162" rx="27" ry="18"/>
<text text-anchor="middle" x="27.56" y="-156.57" font-family="Times New Roman,serif" font-size="14.00">b</text>
</g>
<!-- inv&#45;&gt;b -->
<g id="edge4" class="edge">
<title>inv&#45;&gt;b</title>
<path fill="none" stroke="black" d="M27.56,-215.7C27.56,-208.41 27.56,-199.73 27.56,-191.54"/>
<polygon fill="black" stroke="black" points="31.06,-191.62 27.56,-181.62 24.06,-191.62 31.06,-191.62"/>
</g>
<!-- output -->
<g id="node6" class="node">
<title>output</title>
<ellipse fill="none" stroke="black" cx="54.56" cy="-18" rx="34.6" ry="18"/>
<text text-anchor="middle" x="54.56" y="-12.57" font-family="Times New Roman,serif" font-size="14.00">output</text>
</g>
<!-- con&#45;&gt;output -->
<g id="edge6" class="edge">
<title>con&#45;&gt;output</title>
<path fill="none" stroke="black" d="M54.56,-71.7C54.56,-64.41 54.56,-55.73 54.56,-47.54"/>
<polygon fill="black" stroke="black" points="58.06,-47.62 54.56,-37.62 51.06,-47.62 58.06,-47.62"/>
</g>
<!-- b&#45;&gt;con -->
<g id="edge5" class="edge">
<title>b&#45;&gt;con</title>
<path fill="none" stroke="black" d="M34.09,-144.05C37.08,-136.32 40.69,-126.96 44.04,-118.27"/>
<polygon fill="black" stroke="black" points="47.2,-119.79 47.54,-109.2 40.67,-117.27 47.2,-119.79"/>
</g>
</g>
</svg>
