<?xml version="1.0" encoding="UTF-8" standalone="no"?>
<!DOCTYPE svg PUBLIC "-//W3C//DTD SVG 1.1//EN"
 "http://www.w3.org/Graphics/SVG/1.1/DTD/svg11.dtd">
<!-- Generated by graphviz version 9.0.0 (20230911.1827)
 -->
<!-- Pages: 1 -->
<svg width="278pt" height="260pt"
 viewBox="0.00 0.00 278.00 260.00" xmlns="http://www.w3.org/2000/svg" xmlns:xlink="http://www.w3.org/1999/xlink">
<g id="graph0" class="graph" transform="scale(1 1) rotate(0) translate(4 256)">
<polygon fill="white" stroke="none" points="-4,4 -4,-256 274,-256 274,4 -4,4"/>
<!-- bq -->
<g id="node1" class="node">
<title>bq</title>
<ellipse fill="#eee685" stroke="black" cx="135" cy="-90" rx="27" ry="18"/>
<text text-anchor="middle" x="135" y="-84.58" font-family="Times New Roman,serif" font-size="14.00">bq</text>
</g>
<!-- rx -->
<g id="node2" class="node">
<title>rx</title>
<ellipse fill="none" stroke="black" cx="135" cy="-18" rx="27" ry="18"/>
<text text-anchor="middle" x="135" y="-12.57" font-family="Times New Roman,serif" font-size="14.00">rx</text>
</g>
<!-- bq&#45;&gt;rx -->
<g id="edge1" class="edge">
<title>bq&#45;&gt;rx</title>
<path fill="none" stroke="black" d="M135,-71.7C135,-64.41 135,-55.73 135,-47.54"/>
<polygon fill="black" stroke="black" points="138.5,-47.62 135,-37.62 131.5,-47.62 138.5,-47.62"/>
</g>
<!-- gc -->
<g id="node3" class="node">
<title>gc</title>
<ellipse fill="#eee685" stroke="black" cx="27" cy="-162" rx="27" ry="18"/>
<text text-anchor="middle" x="27" y="-156.57" font-family="Times New Roman,serif" font-size="14.00">gc</text>
</g>
<!-- gc&#45;&gt;bq -->
<g id="edge2" class="edge">
<title>gc&#45;&gt;bq</title>
<path fill="none" stroke="black" d="M45.81,-148.81C62.59,-137.93 87.39,-121.86 106.59,-109.42"/>
<polygon fill="black" stroke="black" points="108.28,-112.49 114.77,-104.11 104.48,-106.61 108.28,-112.49"/>
</g>
<!-- vg -->
<g id="node4" class="node">
<title>vg</title>
<ellipse fill="#eee685" stroke="black" cx="99" cy="-162" rx="27" ry="18"/>
<text text-anchor="middle" x="99" y="-156.57" font-family="Times New Roman,serif" font-size="14.00">vg</text>
</g>
<!-- vg&#45;&gt;bq -->
<g id="edge3" class="edge">
<title>vg&#45;&gt;bq</title>
<path fill="none" stroke="black" d="M107.35,-144.76C111.58,-136.55 116.81,-126.37 121.58,-117.09"/>
<polygon fill="black" stroke="black" points="124.54,-118.99 126,-108.49 118.32,-115.79 124.54,-118.99"/>
</g>
<!-- kp -->
<g id="node5" class="node">
<title>kp</title>
<ellipse fill="#eee685" stroke="black" cx="171" cy="-162" rx="27" ry="18"/>
<text text-anchor="middle" x="171" y="-156.57" font-family="Times New Roman,serif" font-size="14.00">kp</text>
</g>
<!-- kp&#45;&gt;bq -->
<g id="edge4" class="edge">
<title>kp&#45;&gt;bq</title>
<path fill="none" stroke="black" d="M162.65,-144.76C158.42,-136.55 153.19,-126.37 148.42,-117.09"/>
<polygon fill="black" stroke="black" points="151.68,-115.79 144,-108.49 145.46,-118.99 151.68,-115.79"/>
</g>
<!-- tx -->
<g id="node6" class="node">
<title>tx</title>
<ellipse fill="#eee685" stroke="black" cx="243" cy="-162" rx="27" ry="18"/>
<text text-anchor="middle" x="243" y="-156.57" font-family="Times New Roman,serif" font-size="14.00">tx</text>
</g>
<!-- tx&#45;&gt;bq -->
<g id="edge5" class="edge">
<title>tx&#45;&gt;bq</title>
<path fill="none" stroke="black" d="M224.19,-148.81C207.41,-137.93 182.61,-121.86 163.41,-109.42"/>
<polygon fill="black" stroke="black" points="165.52,-106.61 155.23,-104.11 161.72,-112.49 165.52,-106.61"/>
</g>
<!-- qz -->
<g id="node7" class="node">
<title>qz</title>
<ellipse fill="#eee685" stroke="black" cx="27" cy="-234" rx="27" ry="18"/>
<text text-anchor="middle" x="27" y="-228.57" font-family="Times New Roman,serif" font-size="14.00">qz</text>
</g>
<!-- qz&#45;&gt;gc -->
<g id="edge6" class="edge">
<title>qz&#45;&gt;gc</title>
<path fill="none" stroke="black" d="M27,-215.7C27,-208.41 27,-199.73 27,-191.54"/>
<polygon fill="black" stroke="black" points="30.5,-191.62 27,-181.62 23.5,-191.62 30.5,-191.62"/>
</g>
<!-- lx -->
<g id="node8" class="node">
<title>lx</title>
<ellipse fill="#eee685" stroke="black" cx="99" cy="-234" rx="27" ry="18"/>
<text text-anchor="middle" x="99" y="-228.57" font-family="Times New Roman,serif" font-size="14.00">lx</text>
</g>
<!-- lx&#45;&gt;vg -->
<g id="edge7" class="edge">
<title>lx&#45;&gt;vg</title>
<path fill="none" stroke="black" d="M99,-215.7C99,-208.41 99,-199.73 99,-191.54"/>
<polygon fill="black" stroke="black" points="102.5,-191.62 99,-181.62 95.5,-191.62 102.5,-191.62"/>
</g>
<!-- db -->
<g id="node9" class="node">
<title>db</title>
<ellipse fill="#eee685" stroke="black" cx="171" cy="-234" rx="27" ry="18"/>
<text text-anchor="middle" x="171" y="-228.57" font-family="Times New Roman,serif" font-size="14.00">db</text>
</g>
<!-- db&#45;&gt;kp -->
<g id="edge8" class="edge">
<title>db&#45;&gt;kp</title>
<path fill="none" stroke="black" d="M171,-215.7C171,-208.41 171,-199.73 171,-191.54"/>
<polygon fill="black" stroke="black" points="174.5,-191.62 171,-181.62 167.5,-191.62 174.5,-191.62"/>
</g>
<!-- sd -->
<g id="node10" class="node">
<title>sd</title>
<ellipse fill="#eee685" stroke="black" cx="243" cy="-234" rx="27" ry="18"/>
<text text-anchor="middle" x="243" y="-228.57" font-family="Times New Roman,serif" font-size="14.00">sd</text>
</g>
<!-- sd&#45;&gt;tx -->
<g id="edge9" class="edge">
<title>sd&#45;&gt;tx</title>
<path fill="none" stroke="black" d="M243,-215.7C243,-208.41 243,-199.73 243,-191.54"/>
<polygon fill="black" stroke="black" points="246.5,-191.62 243,-181.62 239.5,-191.62 246.5,-191.62"/>
</g>
</g>
</svg>
